<?xml version="1.0" encoding="UTF-8"?>
<svg version="1.1" xmlns="http://www.w3.org/2000/svg" width="96" height="97">
<path d="M0 0 C2.78091885 2.78091885 2.25353599 4.45085225 2.25878906 8.34570312 C2.2622937 8.99627182 2.26579834 9.64684052 2.26940918 10.31712341 C2.27822629 12.47194017 2.27237763 14.62642978 2.265625 16.78125 C2.26697166 18.27575748 2.2689122 19.77026453 2.27142334 21.26477051 C2.27437457 24.39872402 2.27007707 27.53256362 2.26074219 30.66650391 C2.24934757 34.68850013 2.25590706 38.71022945 2.26788712 42.73221588 C2.2751058 45.81880717 2.27281777 48.90533493 2.26763153 51.9919281 C2.26629505 53.47513358 2.26794269 54.95834478 2.27259064 56.44154358 C2.27765612 58.51261731 2.26994584 60.58325566 2.25878906 62.65429688 C2.25640228 64.42395813 2.25640228 64.42395813 2.25396729 66.22937012 C2 69 2 69 0 71 C-0.33 65.72 -0.66 60.44 -1 55 C-1.495 57.475 -1.495 57.475 -2 60 C-2.66 60.99 -3.32 61.98 -4 63 C-4.4603764 66.19806665 -4.4603764 66.19806665 -4.625 69.6875 C-4.73714844 71.45673828 -4.73714844 71.45673828 -4.8515625 73.26171875 C-4.90054687 74.16535156 -4.94953125 75.06898437 -5 76 C-5.33 76 -5.66 76 -6 76 C-6.33 73.69 -6.66 71.38 -7 69 C-7.33 71.97 -7.66 74.94 -8 78 C-10.42869909 74.35695136 -10.25675675 71.69277661 -10.1953125 67.48828125 C-10.1924826 66.76005661 -10.18965271 66.03183197 -10.18673706 65.28153992 C-10.17555257 62.95835863 -10.15045166 60.63556453 -10.125 58.3125 C-10.11496794 56.7363337 -10.10584248 55.16016135 -10.09765625 53.58398438 C-10.07561896 49.72250733 -10.04110141 45.86131929 -10 42 C-8.35 42.33 -6.7 42.66 -5 43 C-5 31.12 -5 19.24 -5 7 C-2 9 -2 9 -1 13 C-0.67 8.71 -0.34 4.42 0 0 Z " fill="#FFFFFF" transform="translate(30,16)"/>
<path d="M0 0 C0.33 0 0.66 0 1 0 C1.33 2.31 1.66 4.62 2 7 C2.66 5.68 3.32 4.36 4 3 C4.66 3 5.32 3 6 3 C6 20.82 6 38.64 6 57 C5.67 57 5.34 57 5 57 C4.67 61.29 4.34 65.58 4 70 C3.34 68.68 2.68 67.36 2 66 C1.67 68.64 1.34 71.28 1 74 C-1 72 -1 72 -1.24723816 69.16017151 C-1.24581314 67.94788376 -1.24438812 66.73559601 -1.24291992 65.48657227 C-1.24481827 64.81810272 -1.24671661 64.14963318 -1.24867249 63.46090698 C-1.25238424 61.24595498 -1.24166943 59.03132924 -1.23046875 56.81640625 C-1.2292769 55.27945494 -1.2288238 53.7425029 -1.2290802 52.20555115 C-1.22751457 48.98163301 -1.21921983 45.75782578 -1.20581055 42.53393555 C-1.18883486 38.39999936 -1.18499579 34.26618532 -1.18575573 30.13221836 C-1.18548384 26.95723808 -1.17999928 23.78228454 -1.17275429 20.60731316 C-1.16957026 19.08307027 -1.16760083 17.55882435 -1.16686058 16.03457832 C-1.1646934 13.90394047 -1.15594057 11.77343228 -1.14526367 9.64282227 C-1.14145187 8.42973892 -1.13764008 7.21665558 -1.13371277 5.96681213 C-1 3 -1 3 0 0 Z " fill="#FFFFFF" transform="translate(90,6)"/>
<path d="M0 0 C0.04947698 3.93265896 0.08575578 7.86519714 0.10986328 11.7980957 C0.12485495 13.79319618 0.15026731 15.78820946 0.17578125 17.78320312 C0.18222656 19.03681641 0.18867188 20.29042969 0.1953125 21.58203125 C0.20578613 22.73936768 0.21625977 23.8967041 0.22705078 25.08911133 C0 28 0 28 -2 31 C-2.33 29.35 -2.66 27.7 -3 26 C-3.33 28.31 -3.66 30.62 -4 33 C-4.33 33 -4.66 33 -5 33 C-5.33 29.7 -5.66 26.4 -6 23 C-6.66 23.99 -7.32 24.98 -8 26 C-9.30684403 19.13906886 -10.06360371 11.9218654 -9 5 C-6.73948511 1.94652963 -3.96171779 0 0 0 Z " fill="#FFFFFF" transform="translate(13,59)"/>
<path d="M0 0 C0.99 0.495 0.99 0.495 2 1 C2 25.75 2 50.5 2 76 C1.01 76.495 1.01 76.495 0 77 C0 51.59 0 26.18 0 0 Z " fill="#FFFFFF" transform="translate(33,13)"/>
<path d="M0 0 C0.33 0 0.66 0 1 0 C1 25.41 1 50.82 1 77 C0.01 77.495 0.01 77.495 -1 78 C-1.02315232 68.2730316 -1.04092987 58.54606973 -1.05181217 48.8190794 C-1.05703465 44.30263484 -1.06412084 39.78620911 -1.07543945 35.26977539 C-1.08629081 30.91260912 -1.09228163 26.55546098 -1.09487724 22.19828224 C-1.09672742 20.53448005 -1.10034027 18.87067887 -1.10573006 17.20688438 C-1.11297029 14.87968157 -1.11398967 12.55255403 -1.11352539 10.2253418 C-1.11712067 9.53482224 -1.12071594 8.84430267 -1.12442017 8.13285828 C-1.11792756 5.13284506 -0.95763658 2.87290974 0 0 Z " fill="#FFFFFF" transform="translate(87,9)"/>
<path d="M0 0 C0.33 0 0.66 0 1 0 C1 28.05 1 56.1 1 85 C0.34 85 -0.32 85 -1 85 C-1.02312297 74.06503529 -1.04091485 63.13007634 -1.05181217 52.1950922 C-1.0570411 47.11808982 -1.06413892 42.04110411 -1.07543945 36.96411133 C-1.08626799 32.06879448 -1.09227676 27.17349371 -1.09487724 22.27816582 C-1.09673155 20.40617049 -1.10035228 18.53417609 -1.10573006 16.66218758 C-1.11294004 14.04959301 -1.11399096 11.43706573 -1.11352539 8.82446289 C-1.11712067 8.04259613 -1.12071594 7.26072937 -1.12442017 6.45516968 C-1.11405216 1.11405216 -1.11405216 1.11405216 0 0 Z " fill="#FFFFFF" transform="translate(84,3)"/>
<path d="M0 0 C0.33 0 0.66 0 1 0 C1.04631189 8.94465318 1.08186333 17.88926518 1.10362434 26.83401203 C1.11406779 30.98728478 1.12823719 35.14047559 1.15087891 39.29370117 C1.17258734 43.30074559 1.1845644 47.30771112 1.18975449 51.3148098 C1.19345384 52.84464955 1.20067765 54.37448492 1.21146011 55.90429115 C1.22594863 58.04476933 1.22797908 60.18492025 1.22705078 62.32543945 C1.231492 63.54455521 1.23593323 64.76367096 1.24050903 66.01972961 C1 69 1 69 -1 72 C-1.02312524 62.76002448 -1.04091601 53.52005886 -1.05181217 44.28006077 C-1.05704061 39.99000085 -1.06413753 35.69996067 -1.07543945 31.40991211 C-1.08626975 27.273206 -1.09227714 23.13651892 -1.09487724 18.99979973 C-1.09673124 17.41807696 -1.10035136 15.83635529 -1.10573006 14.25464058 C-1.1129424 12.04677162 -1.11399086 9.83898227 -1.11352539 7.63110352 C-1.115746 6.37201675 -1.11796661 5.11292999 -1.12025452 3.81568909 C-1 1 -1 1 0 0 Z " fill="#FFFFFF" transform="translate(37,14)"/>
<path d="M0 0 C0 3.96 0 7.92 0 12 C-5.75 14 -5.75 14 -8 14 C-8 9.71 -8 5.42 -8 1 C-4 0 -4 0 0 0 Z " fill="#FFFFFF" transform="translate(64,31)"/>
<path d="M0 0 C0 9.24 0 18.48 0 28 C-2.92784447 26.53607776 -3.60272814 24.95801285 -5 22 C-5.45003209 19.15677962 -5.46480024 16.37397123 -5.4375 13.5 C-5.4674707 12.38044922 -5.4674707 12.38044922 -5.49804688 11.23828125 C-5.49451993 7.25283825 -5.26329292 5.40619345 -3.03515625 1.96875 C-1 0 -1 0 0 0 Z " fill="#FFFFFF" transform="translate(64,56)"/>
<path d="M0 0 C0.66 0 1.32 0 2 0 C2 12.21 2 24.42 2 37 C1.01 37.495 1.01 37.495 0 38 C0 25.46 0 12.92 0 0 Z " fill="#FFFFFF" transform="translate(80,51)"/>
<path d="M0 0 C0.33 0 0.66 0 1 0 C1 12.21 1 24.42 1 37 C0.01 37.495 0.01 37.495 -1 38 C-1.02464928 32.74894558 -1.04283568 27.49792455 -1.05493164 22.24682617 C-1.05997218 20.45905979 -1.06680454 18.67129755 -1.07543945 16.88354492 C-1.0875173 14.31948832 -1.09323094 11.75548603 -1.09765625 9.19140625 C-1.10281754 8.3872377 -1.10797882 7.58306915 -1.11329651 6.75453186 C-1.11349215 4.83598285 -1.06201983 2.91754632 -1 1 C-0.67 0.67 -0.34 0.34 0 0 Z " fill="#FFFFFF" transform="translate(15,58)"/>
<path d="M0 0 C0.66 0 1.32 0 2 0 C2 11.88 2 23.76 2 36 C1.34 36 0.68 36 0 36 C0 24.12 0 12.24 0 0 Z " fill="#FFFFFF" transform="translate(17,58)"/>
<path d="M0 0 C0.66 0 1.32 0 2 0 C2 11.88 2 23.76 2 36 C1.34 35.67 0.68 35.34 0 35 C0 23.45 0 11.9 0 0 Z " fill="#FFFFFF" transform="translate(77,50)"/>
<path d="M0 0 C0.33 0 0.66 0 1 0 C1 10.23 1 20.46 1 31 C0.34 31.33 -0.32 31.66 -1 32 C-1.02465504 27.60343827 -1.04283842 23.2069128 -1.05493164 18.81030273 C-1.05997121 17.31355082 -1.06680287 15.81680384 -1.07543945 14.32006836 C-1.08752159 12.17300193 -1.09323191 10.02600038 -1.09765625 7.87890625 C-1.10289307 6.5854126 -1.10812988 5.29191895 -1.11352539 3.95922852 C-1 1 -1 1 0 0 Z " fill="#FFFFFF" transform="translate(66,53)"/>
<path d="M0 0 C0.66 0 1.32 0 2 0 C2 9.9 2 19.8 2 30 C1.34 30 0.68 30 0 30 C0 20.1 0 10.2 0 0 Z " fill="#FFFFFF" transform="translate(71,51)"/>
<path d="M0 0 C0.66 0 1.32 0 2 0 C2 9.24 2 18.48 2 28 C1.34 28.33 0.68 28.66 0 29 C0 19.43 0 9.86 0 0 Z " fill="#FFFFFF" transform="translate(68,52)"/>
<path d="M0 0 C0.66 0 1.32 0 2 0 C2 9.24 2 18.48 2 28 C1.34 28.33 0.68 28.66 0 29 C0 19.43 0 9.86 0 0 Z " fill="#FFFFFF" transform="translate(74,50)"/>
<path d="M0 0 C0.33 0 0.66 0 1 0 C1 6.27 1 12.54 1 19 C-1 17 -1 17 -1.23046875 13.59375 C-1.22647854 12.22909733 -1.21172843 10.8644434 -1.1875 9.5 C-1.18685547 8.81035156 -1.18621094 8.12070313 -1.18554688 7.41015625 C-1.14055525 2.28111049 -1.14055525 2.28111049 0 0 Z " fill="#FFFFFF" transform="translate(2,67)"/>
<path d="M0 0 C0.66 0 1.32 0 2 0 C2 4.29 2 8.58 2 13 C1.34 13 0.68 13 0 13 C0 8.71 0 4.42 0 0 Z " fill="#FFFFFF" transform="translate(65,30)"/>
<path d="M0 0 C0.66 0 1.32 0 2 0 C2 4.29 2 8.58 2 13 C1.34 13 0.68 13 0 13 C0 8.71 0 4.42 0 0 Z " fill="#FFFFFF" transform="translate(77,27)"/>
<path d="M0 0 C0.33 0 0.66 0 1 0 C1 4.29 1 8.58 1 13 C0.34 13 -0.32 13 -1 13 C-1.02686553 11.02090602 -1.04633375 9.04171029 -1.0625 7.0625 C-1.07410156 5.96035156 -1.08570312 4.85820313 -1.09765625 3.72265625 C-1 1 -1 1 0 0 Z " fill="#FFFFFF" transform="translate(69,29)"/>
<path d="M0 0 C0.66 0 1.32 0 2 0 C2 3.96 2 7.92 2 12 C1.01 12.495 1.01 12.495 0 13 C0 8.71 0 4.42 0 0 Z " fill="#FFFFFF" transform="translate(71,29)"/>
<path d="M0 0 C0.66 0 1.32 0 2 0 C2 3.96 2 7.92 2 12 C1.01 12.495 1.01 12.495 0 13 C0 8.71 0 4.42 0 0 Z " fill="#FFFFFF" transform="translate(80,27)"/>
<path d="M0 0 C0.33 0 0.66 0 1 0 C1 3.96 1 7.92 1 12 C0.01 12.495 0.01 12.495 -1 13 C-1.02708567 11.39592672 -1.04643483 9.7917215 -1.0625 8.1875 C-1.07410156 7.29417969 -1.08570313 6.40085937 -1.09765625 5.48046875 C-1 3 -1 3 0 0 Z " fill="#FFFFFF" transform="translate(40,11)"/>
<path d="M0 0 C0.99 0.495 0.99 0.495 2 1 C2 4.3 2 7.6 2 11 C1.34 11 0.68 11 0 11 C0 7.37 0 3.74 0 0 Z " fill="#FFFFFF" transform="translate(74,30)"/>
<path d="M0 0 C0.33 0 0.66 0 1 0 C1 3.63 1 7.26 1 11 C0.34 11 -0.32 11 -1 11 C-1.02688151 9.35425434 -1.04634123 7.70838587 -1.0625 6.0625 C-1.07410156 5.14597656 -1.08570312 4.22945312 -1.09765625 3.28515625 C-1 1 -1 1 0 0 Z " fill="#FFFFFF" transform="translate(81,5)"/>
<path d="M0 0 C0.33 0 0.66 0 1 0 C1.33 2.97 1.66 5.94 2 9 C1.01 9 0.02 9 -1 9 C-1.125 2.25 -1.125 2.25 0 0 Z " fill="#FFFFFF" transform="translate(53,12)"/>
<path d="M0 0 C0.66 0 1.32 0 2 0 C2 3.3 2 6.6 2 10 C1.34 10 0.68 10 0 10 C0 6.7 0 3.4 0 0 Z " fill="#FFFFFF" transform="translate(49,12)"/>
<path d="M0 0 C2 2 2 2 2.1953125 4.1640625 C2.16050781 5.38222656 2.16050781 5.38222656 2.125 6.625 C2.10695313 7.44226563 2.08890625 8.25953125 2.0703125 9.1015625 C2.04710938 9.72804688 2.02390625 10.35453125 2 11 C1.34 11 0.68 11 0 11 C0 7.37 0 3.74 0 0 Z " fill="#FFFFFF" transform="translate(62,8)"/>
<path d="M0 0 C2.67927341 4.01891012 2.15601248 6.24161923 2 11 C1.34 11 0.68 11 0 11 C0 7.37 0 3.74 0 0 Z " fill="#FFFFFF" transform="translate(59,9)"/>
<path d="M0 0 C0.99 0.495 0.99 0.495 2 1 C2 3.97 2 6.94 2 10 C1.34 10 0.68 10 0 10 C0 6.7 0 3.4 0 0 Z " fill="#FFFFFF" transform="translate(68,8)"/>
<path d="M0 0 C0.33 0 0.66 0 1 0 C1.33 3.63 1.66 7.26 2 11 C1.01 11 0.02 11 -1 11 C-0.67 7.37 -0.34 3.74 0 0 Z " fill="#FFFFFF" transform="translate(43,12)"/>
<path d="M0 0 C0.66 0 1.32 0 2 0 C2 2.64 2 5.28 2 8 C1.34 8 0.68 8 0 8 C0 5.36 0 2.72 0 0 Z " fill="#FFFFFF" transform="translate(77,8)"/>
<path d="M0 0 C2 2 2 2 2.125 5.125 C2.08375 6.07375 2.0425 7.0225 2 8 C1.01 8.495 1.01 8.495 0 9 C0 6.03 0 3.06 0 0 Z " fill="#FFFFFF" transform="translate(53,37)"/>
<path d="M0 0 C0.33 0 0.66 0 1 0 C1.33 3.3 1.66 6.6 2 10 C1.34 10 0.68 10 0 10 C0 6.7 0 3.4 0 0 Z " fill="#FFFFFF" transform="translate(56,10)"/>
<path d="M0 0 C0.99 0.495 0.99 0.495 2 1 C1.67 2.65 1.34 4.3 1 6 C0.67 6 0.34 6 0 6 C0 4.02 0 2.04 0 0 Z " fill="#FFFFFF" transform="translate(71,12)"/>
<path d="M0 0 C0.99 0.495 0.99 0.495 2 1 C2 2.32 2 3.64 2 5 C1.34 5 0.68 5 0 5 C0 3.35 0 1.7 0 0 Z " fill="#FFFFFF" transform="translate(65,14)"/>
<path d="M0 0 C0.33 0 0.66 0 1 0 C1 1.65 1 3.3 1 5 C0.67 5 0.34 5 0 5 C0 3.35 0 1.7 0 0 Z " fill="#FFFFFF" transform="translate(46,17)"/>
<path d="" fill="#FFFFFF" transform="translate(0,0)"/>
<path d="" fill="#FFFFFF" transform="translate(0,0)"/>
</svg>
