<svg xmlns="http://www.w3.org/2000/svg" xmlns:xlink="http://www.w3.org/1999/xlink" width="96" height="96.362" viewBox="0 0 96 96.362">
  <defs>
    <clipPath id="clip-path">
      <path id="Union_9" data-name="Union 9" d="M0,77.376A18.971,18.971,0,0,1,25.92,59.734V13.776h.01l-.01-.05L92.918.7,96,0V69.936h0A18.944,18.944,0,1,1,84,52.054V38.242L50.77,45.666l.11-11.78L84,26.487V14.661L37.92,23.618v56.4h-.179A18.962,18.962,0,0,1,0,77.376Z" transform="translate(2486 1909)" fill="#ffa4a4"/>
    </clipPath>
  </defs>
  <g id="F" transform="translate(-2486 -1909)" clip-path="url(#clip-path)">
    <path id="Union_11" data-name="Union 11" d="M612.562,1345.679c0-25.818.438-46.746.975-46.746s.972,20.93.972,46.746-.433,46.745-.972,46.745S612.562,1371.5,612.562,1345.679Zm-69.209,4.114c0-22.951.427-41.557.953-41.557s.952,18.606.952,41.557-.427,41.557-.952,41.557-.956-18.6-.956-41.554Zm6.347-5.882c0-25.63.428-46.4.953-46.4s.953,20.773.953,46.4-.427,46.4-.953,46.4-.956-20.77-.956-46.4Zm-3.234-2.256c0-26.873.454-48.657,1.015-48.657s1.015,21.785,1.015,48.657-.454,48.655-1.015,48.655-1.02-21.779-1.02-48.65Zm63.111,3.95c0-24.621.41-44.579.916-44.579s.916,19.958.916,44.579-.411,44.577-.916,44.577-.918-19.954-.918-44.575Zm-88.436,1.938c0-23.181.429-41.972.953-41.972s.953,18.791.953,41.972-.427,41.972-.953,41.972-.956-18.787-.956-41.97Zm47.465-.132c0-22.411.487-40.577,1.089-40.577s1.088,18.168,1.088,40.577-.487,40.577-1.088,40.577-1.09-18.162-1.09-40.577Zm-31.613,6.08c0-18.9.428-34.228.953-34.228s.953,15.323.953,34.228-.428,34.229-.953,34.229-.95-15.322-.95-34.227Zm15.877-6.24c0-22.35.427-40.468.952-40.468s.953,18.118.953,40.468-.427,40.467-.953,40.467-.95-18.116-.95-40.468Zm-37.984.324c0-21.724.383-39.338.857-39.338s.856,17.612.856,39.338-.384,39.338-.856,39.338-.855-17.614-.855-39.332Zm56.947-.164c0-21.552.462-39.025,1.029-39.025.541,0,.982,15.814,1.025,35.909h.015c.167,0,.3.618.3,1.38s-.135,1.38-.3,1.38h-.013v.357c0,21.552-.461,39.025-1.029,39.025s-1.025-17.478-1.025-39.026Zm-31.656.169c0-21.326.426-38.616.953-38.616s.953,17.288.953,38.616-.427,38.614-.953,38.614-.951-17.288-.951-38.613Zm96.834-1.946c0-22.27.41-40.324.915-40.324s.916,18.055.916,40.324-.41,40.323-.916,40.323-.913-18.051-.913-40.323Zm-112.7,1.9c0-21.057.427-38.132.953-38.132s.952,17.069.952,38.132-.427,38.127-.952,38.127-.95-17.065-.95-38.124Zm38.08-.069c0-20.994.429-38.014.953-38.014s.953,17.018.953,38.014-.427,38.013-.953,38.013-.954-17.017-.954-38.012Zm53.279-1.946c0-22.05.412-39.925.916-39.925s.915,17.875.915,39.925-.409,39.925-.915,39.925S615.67,1367.567,615.67,1345.518Zm-97.607,1.981c0-20.53.382-37.174.856-37.174s.857,16.644.857,37.174-.384,37.174-.857,37.174-.856-16.642-.856-37.172Zm47.5.052c0-20.45.427-37.032.953-37.032s.953,16.58.953,37.032-.427,37.032-.953,37.032-.956-16.578-.956-37.038Zm-69.835.138c0-20.322.431-36.793.968-36.793s.968,16.471.968,36.793-.432,36.792-.968,36.792-.968-16.477-.968-36.794Zm15.966-.371c0-20.361.384-36.87.857-36.87s.855,16.507.855,36.87-.384,36.869-.855,36.869-.858-16.513-.858-36.874Zm131.5-1.65c0-20.873.369-37.794.823-37.794s.823,16.922.823,37.794-.369,37.792-.823,37.792-.824-16.92-.824-37.79Zm-83.984,1.8c0-19.656.427-35.591.952-35.591s.953,15.934.953,35.591-.428,35.591-.953,35.591-.952-15.937-.952-35.592Zm-66.66.112c0-19.414.44-35.156.968-35.156s.969,15.739.969,35.156-.433,35.154-.969,35.154-.969-15.745-.969-35.159Zm-3.173-.094c0-19.414.441-35.151.968-35.151s.969,15.738.969,35.151-.433,35.151-.969,35.151-.969-15.737-.969-35.151Zm9.52-.069c0-19.345.441-35.028.968-35.028s.968,15.683.968,35.028-.433,35.028-.968,35.028-.969-15.688-.969-35.031Zm135.061-1.791c0-20.23.41-36.63.914-36.63s.916,16.4.916,36.63-.411,36.629-.916,36.629-.916-16.4-.916-36.626Zm-42.812-2.526c0-21.53.468-38.983,1.045-38.983s1.045,17.453,1.045,38.983-.468,38.984-1.045,38.984-1.047-17.452-1.047-38.983Zm-63.572,4.361c0-19.116.384-34.612.856-34.612s.857,15.5.857,34.612-.383,34.613-.857,34.613-.858-15.495-.858-34.615Zm-19.042-.079c0-19.111.385-34.6.857-34.6s.856,15.492.856,34.6-.384,34.6-.856,34.6-.859-15.495-.859-34.606Zm22.119-.131c0-19.133.427-34.644.953-34.644s.953,15.511.953,34.644-.427,34.644-.953,34.644-.958-15.512-.958-34.65Zm75.868-4.488c0-21.473.41-38.88.914-38.88s.916,17.409.916,38.88-.411,38.878-.916,38.878-.916-17.409-.916-38.878Zm-31.326,4.815c0-18.8.376-34.047.839-34.047.419,0,.766,12.434.83,28.7.021-.045.041-.068.063-.068a16.707,16.707,0,0,1,0,6.323c-.018,0-.036-.017-.053-.048-.012,18.409-.383,33.194-.839,33.194s-.842-15.244-.842-34.051Zm-88.987-.067c0-18.735.441-33.918.968-33.918s.968,15.182.968,33.918-.433,33.917-.968,33.917-.971-15.179-.971-33.914Zm153.942-1.916c0-19.724.367-35.714.823-35.714s.823,15.985.823,35.714-.369,35.714-.823,35.714-.826-15.988-.826-35.714Zm-45.819.051c0-19.646.41-35.577.915-35.577s.915,15.929.915,35.577-.41,35.577-.915,35.577-.918-15.929-.918-35.576Zm67.054.13c0-19.521.415-35.345.929-35.345s.931,15.825.931,35.345-.417,35.345-.931,35.345-.931-15.827-.931-35.349ZM533.943,1347.7c0-18.339.382-33.205.855-33.205s.856,14.865.856,33.205-.384,33.205-.856,33.205-.857-14.864-.857-33.206Zm112.325-2.281c0-19.563.369-35.423.823-35.423s.823,15.86.823,35.423-.369,35.422-.823,35.422-.825-15.862-.825-35.428Zm-140.9,2.1c0-18.387.382-33.293.855-33.293s.857,14.906.857,33.293-.384,33.293-.857,33.293-.857-14.907-.857-33.295Zm82.792-4.43c0-20.708.442-37.5.988-37.5s.989,16.789.989,37.5-.447,37.5-.989,37.5-.99-16.787-.99-37.5Zm-85.965,4.536c0-17.882.382-32.381.856-32.381s.857,14.5.857,32.381-.384,32.379-.857,32.379-.858-14.5-.858-32.379Zm162.242-1.958c0-18.653.416-33.775.93-33.775s.93,15.123.93,33.775-.416,33.774-.93,33.774-.932-15.125-.932-33.772Zm3.047-.089c0-18.651.417-33.771.931-33.771s.93,15.12.93,33.771-.416,33.771-.93,33.771-.933-15.123-.933-33.778Zm-9.146-.068c0-18.584.417-33.652.931-33.652s.93,15.067.93,33.652-.415,33.652-.93,33.652-.933-15.07-.933-33.654Zm-27.326.041c0-18.365.369-33.252.823-33.252s.823,14.888.823,33.252-.369,33.253-.823,33.253-.83-14.891-.83-33.26Zm18.293-.076c0-18.362.369-33.245.823-33.245s.823,14.886.823,33.245-.369,33.243-.823,33.243-.83-14.885-.83-33.245Zm-21.433-.126c0-18.382.41-33.283.915-33.283s.915,14.9.915,33.283-.41,33.283-.915,33.283-.923-14.907-.923-33.285Zm-42.571.313c0-18.064.357-39.717.8-39.717s.8,21.653.8,39.717-.357,25.7-.8,25.7-.811-7.64-.811-25.705Zm85.239-.063c0-18,.416-32.585.929-32.585s.93,14.589.93,32.585-.416,32.585-.93,32.585-.936-14.593-.936-32.587Zm-18.186.012c0-17.664.369-31.984.823-31.984s.823,14.32.823,31.984-.369,31.984-.823,31.984-.831-14.325-.831-31.989Zm-54.969-5.179c0-20.175.41-36.525.915-36.525s.915,16.355.915,36.525-.41,36.525-.915,36.525-.923-16.347-.923-36.529Zm3.049,2.322c0-18.885.41-34.193.915-34.193s.916,15.308.916,34.193-.411,34.192-.916,34.192-.923-15.309-.923-34.187Zm54.967,2.955c0-17.178.369-31.108.823-31.108s.823,13.931.823,31.108-.369,31.108-.823,31.108-.831-13.929-.831-31.1Zm-36.676-6.291c0-20.488.41-37.1.915-37.1s.916,16.61.916,37.1-.411,37.1-.916,37.1-.923-16.61-.923-37.1Zm-15.381,11.137c0-13.265.41-24.018.915-24.018s.915,10.753.915,24.018-.41,24.022-.915,24.022S603.346,1363.817,603.346,1350.555Zm-47.31-4.123c0-13.807.427-25,.952-25s.953,11.192.953,25-.427,25-.953,25-.951-11.192-.951-25Zm65.74-7.955c0-18.161.411-32.884.916-32.884s.915,14.723.915,32.884-.409,32.885-.915,32.885-.915-14.725-.915-32.889Zm3.121-6.09c0-17.619.368-31.9.823-31.9s.823,14.281.823,31.9-.368,31.9-.823,31.9-.823-14.286-.823-31.9Zm-141.745,14.88c0-8.951.383-16.206.856-16.206s.857,7.257.857,16.206-.384,16.208-.857,16.208-.855-7.258-.855-16.206Zm190.535-1.9c0-8.6.369-15.572.823-15.572s.823,6.972.823,15.572-.369,15.571-.823,15.571-.823-6.973-.823-15.573Zm-193.73,2.232c0-6.932.383-12.557.856-12.557s.855,5.626.855,12.558-.384,12.558-.855,12.558-.855-5.63-.855-12.56Zm196.8-1.913c0-6.663.368-12.064.823-12.064s.823,5.4.823,12.064-.369,12.064-.823,12.064S676.758,1352.35,676.758,1345.688Zm-94.514-.306c0-6.642.357-12.027.8-12.027s.8,5.384.8,12.027-.357,12.028-.8,12.028-.8-5.39-.8-12.034Zm-105.089,1.547c0-2.91.227-5.269.5-5.269s.5,2.359.5,5.269-.225,5.269-.5,5.269-.5-2.366-.5-5.268Zm102.362-1.434c0-2.8.216-5.063.485-5.063s.484,2.266.484,5.063-.216,5.064-.484,5.064-.484-2.271-.484-5.066Zm-105.344,1.635a8.992,8.992,0,0,1,.314-3.291,9,9,0,0,1,.313,3.291c0,1.817-.14,3.291-.313,3.291s-.313-1.472-.313-3.294Zm205.951-2.085c0-2.8.216-5.064.484-5.064s.484,2.266.484,5.064-.215,5.063-.484,5.063-.483-2.267-.483-5.063ZM471,1347.456c0-.792.145-1.435.314-1.435s.314.643.314,1.435-.141,1.436-.314,1.436S471,1348.251,471,1347.456Zm212.361-2.224a8.532,8.532,0,0,1,.3-3.161,16.707,16.707,0,0,1,0,6.323,8.521,8.521,0,0,1-.3-3.16Zm3.05.319c0-.762.135-1.38.3-1.38s.3.618.3,1.38-.135,1.379-.3,1.379-.3-.616-.3-1.375Zm-108.037-25.066c0-6.914.375-12.518.839-12.518s.839,5.6.839,12.518-.375,12.518-.839,12.518-.842-5.6-.842-12.516Zm3.572-2.18c0-5.187.376-9.393.839-9.393s.839,4.206.839,9.393-.376,9.393-.839,9.393-.842-4.2-.842-9.389Z" transform="translate(1956.61 612.91)" fill="#fff"/>
  </g>
</svg>
